<svg width="298" height="105" viewBox="0 0 298 105" fill="none" xmlns="http://www.w3.org/2000/svg">
<path d="M3.266 99C3.266 87.9227 8.358 78.4087 18.542 70.458C23.2767 67.5993 27.9667 64.696 32.612 61.748C37.2573 58.8 41.9473 55.852 46.682 52.904C56.7767 46.2933 61.824 39.1467 61.824 31.464C61.824 25.7467 59.144 21.3247 53.784 18.198C49.496 15.786 44.1807 14.58 37.838 14.58C32.1207 14.58 27.118 15.6967 22.83 17.93C17.5593 20.7887 14.924 24.898 14.924 30.258H3.266C3.266 21.5033 7.10733 14.58 14.79 9.48799C21.3113 5.11066 29.1727 2.922 38.374 2.922C47.6647 2.922 55.66 5.334 62.36 10.158C69.864 15.4287 73.616 22.5307 73.616 31.464C73.616 40.3973 69.73 48.214 61.958 54.914C60.618 56.0753 57.9827 57.9067 54.052 60.408C50.1213 62.82 44.806 66.036 38.106 70.056C28.0113 75.952 21.4453 81.714 18.408 87.342H73.616V99H3.266ZM73.616 101.814C74.3307 101.814 74.956 101.501 75.492 100.876C76.1173 100.34 76.43 99.7147 76.43 99V87.342C76.43 86.538 76.1173 85.868 75.492 85.332C74.956 84.796 74.3307 84.528 73.616 84.528H23.902C27.2073 80.6867 32.3887 76.6667 39.446 72.468C46.2353 68.448 51.64 65.1873 55.66 62.686C59.68 60.0953 62.36 58.264 63.7 57.192C72.1867 49.7773 76.43 41.2013 76.43 31.464C76.43 21.6373 72.276 13.7313 63.968 7.74599V7.88C56.6427 2.69866 48.1113 0.107995 38.374 0.107995C28.5473 0.107995 20.15 2.47533 13.182 7.20999C4.69533 12.838 0.452 20.5207 0.452 30.258C0.452 31.062 0.72 31.732 1.256 32.268C1.792 32.804 2.462 33.072 3.266 33.072H14.924C15.728 33.072 16.398 32.804 16.934 32.268C17.47 31.732 17.738 31.062 17.738 30.258C17.738 25.8807 19.882 22.62 24.17 20.476C28.0113 18.4213 32.5673 17.394 37.838 17.394C43.8233 17.394 48.6473 18.5107 52.31 20.744C56.7767 23.0667 59.01 26.64 59.01 31.464C59.01 38.164 54.3647 44.5513 45.074 50.626C40.3393 53.4847 35.6047 56.4327 30.87 59.47C26.1353 62.5073 21.4007 65.4553 16.666 68.314C5.85667 76.89 0.452 87.1187 0.452 99C0.452 99.7147 0.72 100.34 1.256 100.876C1.792 101.501 2.462 101.814 3.266 101.814H73.616ZM163.35 52.1C163.35 42.452 161.117 34.144 156.65 27.176C151.201 18.7787 144.054 14.58 135.21 14.58C126.277 14.58 119.175 18.7787 113.904 27.176C109.348 34.3227 107.07 42.6307 107.07 52.1C107.07 61.6587 109.348 69.9667 113.904 77.024C119.085 85.4213 126.187 89.62 135.21 89.62C144.143 89.62 151.29 85.4213 156.65 77.024C161.117 70.056 163.35 61.748 163.35 52.1ZM175.142 52.1C175.142 64.696 171.747 75.818 164.958 85.466C157.275 96.0967 147.359 101.412 135.21 101.412C123.15 101.412 113.279 96.0967 105.596 85.466C98.8066 75.9967 95.4119 64.8747 95.4119 52.1C95.4119 45.7573 96.2606 39.8167 97.9579 34.278C99.6553 28.7393 102.201 23.6027 105.596 18.868C113.189 8.23733 123.061 2.922 135.21 2.922C147.449 2.922 157.365 8.23733 164.958 18.868C171.747 28.3373 175.142 39.4147 175.142 52.1ZM177.956 52.1C177.956 38.6107 174.383 26.9527 167.236 17.126C159.107 5.78066 148.431 0.107995 135.21 0.107995C122.167 0.107995 111.492 5.78066 103.184 17.126C96.1266 26.9527 92.5979 38.6107 92.5979 52.1C92.5979 65.4107 96.1266 77.0687 103.184 87.074C111.403 98.5087 122.078 104.226 135.21 104.226C148.431 104.226 159.107 98.5087 167.236 87.074C174.383 77.158 177.956 65.5 177.956 52.1ZM160.536 52.1C160.536 61.3013 158.437 69.118 154.238 75.55C149.503 83.054 143.161 86.806 135.21 86.806C127.259 86.806 120.961 83.054 116.316 75.55C112.028 69.0287 109.884 61.212 109.884 52.1C109.884 43.0773 112.028 35.2607 116.316 28.65C120.961 21.146 127.259 17.394 135.21 17.394C143.161 17.394 149.503 21.146 154.238 28.65C158.437 35.082 160.536 42.8987 160.536 52.1ZM232.716 26.372C232.716 22.4413 231.331 19.0913 228.562 16.322C225.882 13.642 222.577 12.302 218.646 12.302C214.715 12.302 211.365 13.6867 208.596 16.456C205.916 19.136 204.576 22.4413 204.576 26.372C204.576 30.2133 205.916 33.5187 208.596 36.288C211.544 39.0573 214.894 40.442 218.646 40.442C222.487 40.442 225.793 39.0573 228.562 36.288C231.331 33.5187 232.716 30.2133 232.716 26.372ZM285.378 77.962C285.378 73.942 284.038 70.592 281.358 67.912C278.678 65.232 275.328 63.892 271.308 63.892C267.377 63.892 264.072 65.232 261.392 67.912C258.623 70.6813 257.238 74.0313 257.238 77.962C257.238 81.8033 258.623 85.1087 261.392 87.878C264.161 90.6473 267.467 92.032 271.308 92.032C275.239 92.032 278.589 90.6473 281.358 87.878C284.038 85.198 285.378 81.8927 285.378 77.962ZM242.096 26.372C242.096 32.804 239.773 38.3427 235.128 42.988C230.572 47.544 225.078 49.822 218.646 49.822C212.125 49.822 206.541 47.544 201.896 42.988C197.429 38.5213 195.196 32.9827 195.196 26.372C195.196 19.7613 197.429 14.2227 201.896 9.756C206.541 5.2 212.125 2.922 218.646 2.922C225.078 2.922 230.572 5.2 235.128 9.756C239.773 14.4013 242.096 19.94 242.096 26.372ZM210.338 99H198.68L279.616 5.19999H291.274L210.338 99ZM294.758 77.962C294.758 84.4833 292.48 90.022 287.924 94.578C283.368 99.134 277.829 101.412 271.308 101.412C264.787 101.412 259.248 99.134 254.692 94.578C250.136 90.022 247.858 84.4833 247.858 77.962C247.858 71.4407 250.136 65.902 254.692 61.346C259.248 56.79 264.787 54.512 271.308 54.512C277.829 54.512 283.368 56.79 287.924 61.346C292.48 65.902 294.758 71.4407 294.758 77.962ZM297.572 77.962C297.572 70.8153 295.026 64.6067 289.934 59.336C284.663 54.244 278.455 51.698 271.308 51.698C264.072 51.698 257.863 54.244 252.682 59.336C247.59 64.6067 245.044 70.8153 245.044 77.962C245.044 85.198 247.59 91.4067 252.682 96.588C257.863 101.68 264.072 104.226 271.308 104.226C278.455 104.226 284.663 101.68 289.934 96.588C295.026 91.4067 297.572 85.198 297.572 77.962ZM244.91 26.372C244.91 22.62 244.24 19.2253 242.9 16.188C241.649 13.1507 239.729 10.3367 237.138 7.74599C231.867 2.65399 225.703 0.107995 218.646 0.107995C211.321 0.107995 205.112 2.65399 200.02 7.74599C194.928 12.838 192.382 19.0467 192.382 26.372C192.382 33.6973 194.928 39.906 200.02 44.998C205.112 50.09 211.321 52.636 218.646 52.636C225.703 52.636 231.867 50.09 237.138 44.998C242.319 39.638 244.91 33.4293 244.91 26.372ZM293.418 7.07599C294.222 6.09333 294.356 5.066 293.82 3.99399C293.373 2.922 292.525 2.386 291.274 2.386H279.616C279.259 2.386 278.857 2.52 278.41 2.78799C277.963 2.96666 277.651 3.14533 277.472 3.32399L196.536 97.124C195.732 98.1067 195.553 99.134 196 100.206C196.536 101.278 197.429 101.814 198.68 101.814H210.338C210.695 101.814 211.097 101.68 211.544 101.412C211.991 101.233 212.303 101.055 212.482 100.876L293.418 7.07599ZM282.564 77.962C282.564 81.0887 281.492 83.724 279.348 85.868C277.115 88.1013 274.435 89.218 271.308 89.218C268.271 89.218 265.635 88.1013 263.402 85.868C261.169 83.6347 260.052 80.9993 260.052 77.962C260.052 74.8353 261.169 72.1553 263.402 69.922C265.546 67.778 268.181 66.706 271.308 66.706C274.524 66.706 277.204 67.778 279.348 69.922C281.492 72.066 282.564 74.746 282.564 77.962ZM229.902 26.372C229.902 29.4093 228.785 32.0447 226.552 34.278C224.319 36.5113 221.683 37.628 218.646 37.628C217.038 37.628 215.564 37.36 214.224 36.824C212.973 36.1987 211.767 35.35 210.606 34.278C208.462 32.0447 207.39 29.4093 207.39 26.372C207.39 23.2453 208.462 20.61 210.606 18.466C212.839 16.2327 215.519 15.116 218.646 15.116C221.773 15.116 224.408 16.188 226.552 18.332C228.785 20.5653 229.902 23.2453 229.902 26.372Z" fill="white"/>
</svg>
