<svg width="14" height="8" viewBox="0 0 14 8" fill="none" xmlns="http://www.w3.org/2000/svg">
<path d="M10.5 1.7045H13.5M8.5 1.7045H0.5" stroke="#5B5B5B"/>
<ellipse cx="0.5" cy="1.70448" rx="0.5" ry="0.48427" fill="#5B5B5B"/>
<ellipse cx="13.5" cy="1.70448" rx="0.5" ry="0.48427" fill="#5B5B5B"/>
<path d="M10.5 1.70449C10.5 2.21576 10.0675 2.6573 9.5 2.6573C8.93253 2.6573 8.5 2.21576 8.5 1.70449C8.5 1.19321 8.93253 0.751678 9.5 0.751678C10.0675 0.751678 10.5 1.19321 10.5 1.70449Z" stroke="#5B5B5B"/>
<path d="M3.5 6.54718L0.5 6.54718M5.5 6.54718L13.5 6.54718" stroke="#5B5B5B"/>
<ellipse cx="13.5" cy="6.54719" rx="0.5" ry="0.48427" transform="rotate(-180 13.5 6.54719)" fill="#5B5B5B"/>
<ellipse cx="0.5" cy="6.54719" rx="0.5" ry="0.48427" transform="rotate(-180 0.5 6.54719)" fill="#5B5B5B"/>
<path d="M5.5 6.5472C5.5 7.05848 5.06747 7.50001 4.5 7.50001C3.93253 7.50001 3.5 7.05848 3.5 6.5472C3.5 6.03592 3.93253 5.59439 4.5 5.59439C5.06747 5.59439 5.5 6.03592 5.5 6.5472Z" stroke="#5B5B5B"/>
</svg>
